<svg width="142" height="131" viewBox="0 0 142 131" fill="none" xmlns="http://www.w3.org/2000/svg">
<path d="M125.02 54.2158C124.869 67.9025 120.326 79.911 111.344 90.2291C110.983 90.643 110.772 90.7465 110.368 90.2791C109.801 89.6237 109.172 89.0165 108.531 88.4301C108.201 88.1282 108.228 87.9557 108.515 87.6332C112.786 82.8191 116.047 77.3893 118.217 71.3229C124.527 53.6915 120.749 34.3455 108.185 20.4725C99.8238 11.2393 89.4274 5.68358 77.0647 4.2554C61.4331 2.44947 47.7677 7.06519 36.3332 17.9094C27.7895 26.011 22.697 36.0324 21.2498 47.7424C19.4005 62.7159 23.534 75.9662 33.3169 87.4262C33.6778 87.8488 33.7225 88.0661 33.2911 88.4456C32.6534 89.0044 32.057 89.615 31.4933 90.2498C31.141 90.6448 30.9588 90.5637 30.6425 90.2066C26.5073 85.503 23.2367 80.2629 20.8992 74.4449C18.4724 68.401 17.1971 62.1226 17.0201 55.6043C16.3137 29.6936 34.2999 6.54601 59.6697 1.28865C78.1939 -2.55088 94.5663 2.21834 108.361 15.21C117.365 23.6893 122.622 34.261 124.465 46.5212C124.848 49.0671 125.018 51.6337 125.022 54.2158H125.02Z" fill="white"/>
<path d="M37.399 80.8203C40.1678 81.3792 42.8232 82.1209 45.4597 82.9333C54.6548 85.7689 62.6794 90.6848 70.0234 96.8132C70.9773 97.6083 70.955 97.629 71.8865 96.8356C76.515 92.8926 81.427 89.3549 86.8667 86.6158C92.1999 83.9302 97.863 82.1898 103.677 80.91C104.11 80.8151 104.205 80.9169 104.195 81.3464C104.165 82.4744 104.179 83.6025 104.19 84.7306C104.191 85.0065 104.138 85.1359 103.823 85.198C96.0721 86.7245 89.034 89.9586 82.4411 94.2431C79.5571 96.1181 76.8209 98.1913 74.2772 100.513C73.9575 100.804 73.8149 101.099 73.8372 101.536C73.8733 102.246 73.8544 102.961 73.8441 103.673C73.8355 104.287 73.509 104.62 72.8902 104.625C71.6081 104.635 70.3259 104.639 69.0438 104.625C68.3803 104.618 68.0847 104.294 68.0744 103.625C68.0693 103.307 68.0263 102.983 68.0813 102.676C68.2944 101.486 67.7582 100.739 66.8576 99.9938C62.8152 96.6545 58.6559 93.4894 53.9742 91.0953C49.7101 88.9133 45.1881 87.3937 40.6147 86.0242C39.6711 85.7413 38.7189 85.486 37.7702 85.2221C37.5829 85.1704 37.3904 85.1704 37.3921 84.8789C37.4041 83.5387 37.3973 82.1967 37.3973 80.8203H37.399Z" fill="white"/>
<path d="M70.9359 92.4347C70.3051 92.4347 69.6726 92.4485 69.0418 92.4313C68.387 92.414 68.0845 92.0863 68.0725 91.4257C68.0691 91.2083 68.0398 90.9841 68.0776 90.7737C68.3165 89.4024 67.7425 88.5055 66.6735 87.6344C62.3011 84.0692 57.8204 80.6781 52.6901 78.2668C47.9637 76.0451 43.0086 74.4514 37.978 73.0939C37.495 72.9628 37.3661 72.7748 37.3833 72.297C37.4228 71.25 37.4142 70.1996 37.3867 69.1509C37.3747 68.718 37.4882 68.6162 37.9161 68.7093C46.3274 70.5567 54.2765 73.5355 61.5002 78.322C64.6798 80.428 67.8147 82.591 70.6316 85.1748C71.0235 85.5336 71.1833 85.23 71.393 85.0489C74.5658 82.3064 77.9155 79.8088 81.4285 77.5199C88.2587 73.068 95.8004 70.4497 103.691 68.7076C104.012 68.6369 104.2 68.6317 104.188 69.0716C104.158 70.2186 104.167 71.3673 104.186 72.5144C104.191 72.8386 104.076 72.9421 103.768 73.006C92.5657 75.3569 82.9187 80.7333 74.3612 88.2347C73.9694 88.5779 73.7992 88.935 73.8319 89.4542C73.8748 90.1251 73.8508 90.7996 73.8405 91.4723C73.8302 92.0828 73.4984 92.4192 72.8849 92.4313C72.2335 92.4433 71.5838 92.4347 70.9324 92.4347H70.9359Z" fill="white"/>
<path d="M70.9616 116.526C70.3308 116.526 69.6983 116.543 69.0693 116.521C68.3749 116.497 68.0776 116.174 68.0673 115.477C68.0621 115.022 68.0209 114.561 68.0759 114.113C68.1756 113.314 67.8937 112.764 67.275 112.241C62.9198 108.566 58.3996 105.135 53.2641 102.615C49.1994 100.621 44.9163 99.1928 40.5887 97.8974C39.664 97.6214 38.7376 97.3472 37.8026 97.1161C37.4469 97.0281 37.3901 96.8521 37.3936 96.5365C37.4073 95.4688 37.4262 94.3977 37.3884 93.3317C37.3678 92.7591 37.6101 92.7194 38.0622 92.8263C39.9029 93.2558 41.7402 93.6957 43.5534 94.2338C47.8124 95.4981 51.9854 97.0005 55.904 99.1169C61.1409 101.946 66.0822 105.223 70.5577 109.171C70.8636 109.442 71.0389 109.442 71.3414 109.18C74.0914 106.805 76.9753 104.607 79.9693 102.549C86.5795 98.0061 93.8908 95.1221 101.64 93.2645C102.292 93.1092 102.943 92.9591 103.596 92.8091C103.961 92.7246 104.191 92.7608 104.179 93.2472C104.15 94.3546 104.164 95.4636 104.174 96.571C104.176 96.8659 104.122 97.0143 103.775 97.0798C99.8461 97.8215 96.0856 99.0996 92.4265 100.693C86.8613 103.117 81.7465 106.291 76.9942 110.061C76.0988 110.772 75.2618 111.555 74.3801 112.284C73.9848 112.612 73.8043 112.981 73.8404 113.511C73.8868 114.18 73.8593 114.856 73.849 115.529C73.8387 116.164 73.4932 116.51 72.8556 116.521C72.2248 116.533 71.5941 116.522 70.9616 116.522V116.526Z" fill="white"/>
<path d="M63.3961 39.2443C63.891 39.9343 64.3534 40.5915 64.8312 41.2383C65.804 42.5578 66.7011 43.9325 67.7547 45.1934C68.4817 46.0644 69.3892 46.6008 70.5149 46.7664C71.4087 46.8975 72.1477 46.6629 72.6771 45.8937C73.1171 45.2555 73.4247 44.5483 73.7255 43.8394C75.5834 39.4772 77.4379 35.1133 79.2975 30.7546C79.3834 30.5545 79.3834 30.2613 79.7169 30.2578C80.0537 30.2544 80.0537 30.5493 80.1362 30.7494C81.9873 35.1789 83.8315 39.61 85.6842 44.0394C85.8887 44.531 86.1328 45.0054 86.3717 45.4814C86.7412 46.2197 87.329 46.6716 88.1523 46.8027C88.3293 46.8302 88.5802 46.782 88.5441 47.1028C88.508 47.4305 88.252 47.308 88.0887 47.308C86.2153 47.3167 84.3419 47.3167 82.4685 47.308C82.3035 47.308 82.044 47.4357 82.0079 47.1097C81.9667 46.7388 82.2674 46.8406 82.4513 46.8078C83.6063 46.5991 83.9054 46.1783 83.5307 45.0864C83.1783 44.0601 82.7298 43.0666 82.3345 42.0559C82.2468 41.8316 82.099 41.7764 81.8773 41.7764C79.9644 41.7816 78.0514 41.7816 76.1385 41.7764C75.9168 41.7764 75.7707 41.8333 75.6814 42.0541C75.274 43.0614 74.8203 44.0515 74.449 45.0709C74.0727 46.1024 74.3648 46.5181 75.427 46.7561C75.6848 46.8147 76.209 46.6146 76.1729 47.0717C76.1351 47.5443 75.6349 47.2977 75.3582 47.2994C72.5774 47.3201 69.7982 47.3063 67.0174 47.3201C66.6633 47.3218 66.4485 47.2132 66.2422 46.9234C64.5871 44.6104 62.9131 42.3094 61.2442 40.005C60.9882 39.6514 59.6854 39.3616 59.3296 39.5772C59.2007 39.6549 59.2265 39.779 59.2282 39.8912C59.2523 41.6712 59.1595 43.453 59.2815 45.2296C59.3605 46.3904 59.8418 46.8216 61.0277 46.8337C61.1463 46.8337 61.2649 46.8372 61.3835 46.8337C61.5278 46.832 61.5983 46.8958 61.6017 47.0441C61.6035 47.2045 61.5622 47.3149 61.3749 47.3098C61.1772 47.3046 60.9813 47.3098 60.7836 47.3098C58.8518 47.3098 56.9183 47.3132 54.9864 47.3029C54.806 47.3029 54.4966 47.4495 54.4794 47.0924C54.4605 46.6716 54.8111 46.8475 54.9985 46.8423C56.2927 46.8078 56.8169 46.3542 56.8237 45.0519C56.8478 41.0158 56.8495 36.9796 56.8237 32.9434C56.8151 31.5653 56.3528 31.1617 54.983 31.1116C54.7991 31.1047 54.4949 31.2514 54.4743 30.8943C54.4519 30.5166 54.7682 30.6528 54.9486 30.6511C57.1967 30.6477 59.4448 30.6494 61.6911 30.6684C62.6192 30.677 63.5439 30.7563 64.4376 31.0323C66.1082 31.5463 67.301 32.9572 67.435 34.5648C67.5811 36.3311 66.7097 37.8144 65.0546 38.6424C64.5442 38.8976 63.9873 39.0287 63.3961 39.2443ZM59.2248 35.2668C59.2248 36.2741 59.2213 37.2797 59.2282 38.287C59.2282 38.4837 59.1423 38.7407 59.5066 38.7441C60.6771 38.7562 61.832 38.6769 62.8822 38.087C64.166 37.3677 64.8037 35.9844 64.5699 34.4682C64.3448 33.0021 63.3926 31.9654 61.973 31.6774C61.1497 31.5101 60.3299 31.6395 59.5101 31.7636C59.1938 31.8119 59.223 32.0258 59.2248 32.2449C59.2248 33.2522 59.2248 34.2578 59.2248 35.2651V35.2668ZM79.0552 34.1802C78.1185 36.3707 77.2454 38.4199 76.3637 40.4638C76.2245 40.7846 76.3637 40.826 76.6404 40.8243C77.9019 40.8174 79.1652 40.8209 80.4267 40.8209C80.8667 40.8209 81.3084 40.8209 81.8171 40.8209C80.889 38.5906 80.0039 36.4621 79.0552 34.1802Z" fill="white"/>
<path d="M49.134 38.7827C49.4846 38.9034 49.6994 38.9759 49.9143 39.05C51.3442 39.5382 52.3479 40.4592 52.6315 41.9823C52.9323 43.6002 52.3411 44.9404 51.1259 46.0047C50.2425 46.7774 49.1546 47.0465 48.0237 47.1896C46.7072 47.3569 45.3855 47.3017 44.0655 47.3052C42.1337 47.3121 40.2001 47.3104 38.2683 47.3017C38.0844 47.3017 37.7854 47.4259 37.7957 47.0499C37.806 46.7153 38.0741 46.8412 38.2425 46.836C39.645 46.7912 40.1262 46.3807 40.1348 44.9887C40.1623 40.9732 40.1623 36.9561 40.1348 32.9389C40.1245 31.5693 39.6484 31.1588 38.2855 31.1105C38.0982 31.1036 37.7922 31.2313 37.7991 30.8691C37.8077 30.5017 38.1188 30.6517 38.2975 30.65C40.8618 30.6465 43.4244 30.6431 45.9887 30.6672C47.2193 30.6793 48.4293 30.8587 49.5447 31.4245C51.04 32.1817 51.9217 33.3735 51.9217 35.0898C51.9217 36.7801 51.0245 37.8996 49.5293 38.5843C49.4416 38.624 49.3574 38.6706 49.134 38.7827ZM42.5513 42.6895C42.5513 43.6778 42.5513 44.6679 42.5513 45.6562C42.5513 45.8684 42.5066 46.0823 42.8298 46.1426C44.4144 46.4376 46.0059 46.6135 47.5579 46.0564C48.8813 45.5803 49.7441 44.6558 49.8524 43.1828C49.9796 41.4562 48.9037 40.047 47.056 39.4882C45.688 39.0742 44.2855 39.1915 42.8882 39.2363C42.5341 39.2484 42.5462 39.4726 42.5479 39.7245C42.553 40.7128 42.5496 41.7029 42.5496 42.6912L42.5513 42.6895ZM42.5513 34.8983C42.5513 35.828 42.5513 36.7577 42.5513 37.6874C42.5513 37.9099 42.529 38.1221 42.8487 38.1566C44.2855 38.3101 45.7258 38.3963 47.1368 38.0134C48.2505 37.7098 48.9552 36.9474 49.244 35.8177C49.6908 34.0669 48.6699 32.3576 46.8171 31.7849C45.5453 31.3917 44.2511 31.4314 42.9552 31.6556C42.6544 31.7073 42.5359 31.8436 42.5445 32.1679C42.5668 33.0769 42.553 33.9876 42.553 34.8966L42.5513 34.8983Z" fill="white"/>
<path d="M92.5826 38.5397C92.5448 40.3318 92.6908 41.76 93.27 43.1157C94.8942 46.9208 100.025 47.8332 102.883 44.8199C103.29 44.3904 103.646 43.9143 104.024 43.459C104.143 43.3175 104.211 43.0899 104.478 43.2727C104.754 43.4642 104.54 43.6177 104.455 43.7677C102.673 46.8742 99.8355 48.1627 96.1248 47.5538C93.0844 47.0553 90.5906 44.5836 89.965 41.3495C89.3325 38.0861 89.965 35.1124 92.311 32.67C94.7241 30.1603 98.4382 29.5791 101.638 31.1125C102.668 31.6058 102.835 31.5506 103.357 30.5001C103.438 30.338 103.515 30.2414 103.704 30.2552C103.936 30.2725 103.914 30.438 103.926 30.5985C104.038 32.256 104.155 33.9136 104.258 35.5712C104.266 35.6954 104.392 35.9041 104.119 35.9403C103.876 35.9714 103.833 35.8006 103.776 35.623C103.574 34.9813 103.316 34.3621 102.974 33.7791C101.927 31.9939 100.341 31.1452 98.311 31.1746C96.2571 31.2056 94.6811 32.1094 93.6843 33.9499C92.8524 35.4867 92.6255 37.1615 92.5826 38.5414V38.5397Z" fill="white"/>
<path d="M46.3878 61.71C46.3878 59.5384 46.4033 57.5462 46.3792 55.554C46.3707 54.9003 46.1094 54.7105 45.3841 54.6519C45.2415 54.6398 45.018 54.7261 45.0094 54.4897C44.9991 54.2362 45.2346 54.3242 45.3686 54.3224C46.295 54.3138 47.2231 54.3155 48.1495 54.3224C48.275 54.3224 48.4589 54.2621 48.4847 54.4604C48.5122 54.6691 48.3317 54.6381 48.1994 54.6553C47.2541 54.7726 47.0977 54.9313 47.0942 55.8869C47.0856 58.5587 47.0942 61.2305 47.0856 63.9023C47.0856 64.0851 47.2094 64.3456 46.9877 64.4404C46.7213 64.5543 46.6267 64.2593 46.4996 64.1058C44.5987 61.7807 42.7064 59.4487 40.8055 57.1219C40.6749 56.9632 40.5855 56.751 40.3655 56.6786C40.3363 56.7165 40.2968 56.7441 40.2968 56.7717C40.3002 58.8088 40.2813 60.8458 40.3225 62.8829C40.3414 63.8022 40.4858 63.8937 41.4105 64.0023C41.5222 64.0161 41.6803 63.973 41.6958 64.1334C41.7181 64.3697 41.5153 64.2921 41.4002 64.2938C40.4342 64.3007 39.4666 64.299 38.5007 64.2938C38.3959 64.2938 38.2326 64.3507 38.2223 64.1748C38.2085 63.9523 38.3959 64.0178 38.5196 64.0041C39.391 63.9092 39.6058 63.7332 39.6161 62.8691C39.6454 60.5543 39.6385 58.2379 39.6316 55.9231C39.6316 55.4315 38.8771 54.7795 38.2102 54.6847C37.8613 54.6364 37.4987 54.6346 37.1481 54.6726C36.6342 54.7278 36.3437 55.1279 36.3351 55.8041C36.318 57.2685 36.3351 58.7329 36.3214 60.1973C36.3162 60.7096 36.2836 61.227 36.2148 61.7341C36.0275 63.1295 35.1045 64.1196 33.733 64.4094C32.8324 64.5991 31.9267 64.5853 31.0312 64.3852C29.6373 64.073 28.735 62.9985 28.6697 61.4306C28.5975 59.7126 28.6267 57.9895 28.6078 56.2681C28.6044 56.0111 28.5907 55.7541 28.5649 55.5005C28.5082 54.9382 28.2039 54.6519 27.6282 54.6519C27.4752 54.6519 27.2088 54.7657 27.1968 54.4984C27.183 54.2103 27.4563 54.3293 27.6041 54.3276C28.7677 54.3173 29.9312 54.319 31.0948 54.3276C31.2289 54.3276 31.4592 54.2362 31.466 54.4811C31.4729 54.7243 31.2478 54.645 31.1051 54.6553C30.3712 54.7157 30.0928 54.921 30.0773 55.6023C30.0361 57.5203 29.9502 59.4453 30.1117 61.3564C30.2887 63.4504 31.717 64.3421 33.7296 63.6987C34.7488 63.3728 35.4225 62.7294 35.5566 61.603C35.6975 60.4388 35.6116 59.271 35.6322 58.105C35.6459 57.3133 35.6477 56.5216 35.627 55.7299C35.6064 54.933 35.3899 54.7226 34.6078 54.6553C34.4635 54.6433 34.2383 54.7157 34.2418 54.4811C34.2452 54.2431 34.4772 54.3242 34.6147 54.3242C36.409 54.319 38.2051 54.3311 39.9994 54.3121C40.3346 54.3086 40.491 54.4897 40.668 54.7054C42.4108 56.8528 44.157 59.0002 45.9014 61.146C46.0235 61.296 46.1507 61.4409 46.3827 61.7117L46.3878 61.71Z" fill="white"/>
<path d="M76.3382 54.322C77.3041 54.3185 78.27 54.3082 79.2274 54.4479C80.7605 54.6704 81.7109 55.7967 81.5442 57.2094C81.4101 58.3512 80.6814 58.9998 79.6433 59.3102C79.1982 59.4448 79.1878 59.5672 79.4525 59.9139C80.1211 60.7936 80.7536 61.7009 81.4032 62.5961C81.9034 63.286 82.4895 63.8483 83.3883 63.9622C83.5121 63.9777 83.6994 63.9863 83.6565 64.1899C83.6238 64.3468 83.464 64.2899 83.3591 64.2899C82.6699 64.2951 81.979 64.2761 81.2915 64.3002C80.9908 64.3106 80.8842 64.1243 80.7467 63.9328C79.81 62.6375 78.8475 61.3594 77.9486 60.0381C77.6427 59.5879 77.2663 59.6604 76.8659 59.6673C76.6184 59.6707 76.6802 59.8812 76.6802 60.0226C76.6768 60.992 76.6648 61.9596 76.6888 62.929C76.7077 63.7207 76.9295 63.9294 77.7115 64.0087C77.8472 64.0225 78.0827 63.9294 78.0621 64.1812C78.0466 64.3692 77.8387 64.2899 77.7166 64.2899C76.5342 64.2968 75.3517 64.2968 74.1709 64.2899C74.0523 64.2899 73.8495 64.3727 73.8427 64.1623C73.8358 63.957 74.0317 64.0208 74.1589 64.007C74.9925 63.9139 75.2279 63.6914 75.2331 62.841C75.2486 60.509 75.2503 58.1753 75.2331 55.8433C75.2262 54.9257 75.032 54.7428 74.1434 54.6549C74.0111 54.6428 73.8324 54.6876 73.8375 54.4824C73.8427 54.2737 74.0266 54.3271 74.1555 54.3254C74.8842 54.322 75.6129 54.3254 76.3417 54.3254L76.3382 54.322ZM76.6768 57.1128V58.058C76.6768 59.3258 76.7026 59.3465 77.9933 59.0808C79.3013 58.8135 80.0403 57.8338 79.8375 56.6384C79.6278 55.4069 78.6808 54.7877 77.311 54.9326C76.804 54.986 76.6081 55.1689 76.6648 55.6932C76.7163 56.1607 76.6751 56.6384 76.6751 57.111L76.6768 57.1128Z" fill="white"/>
<path d="M90.4139 55.8581C90.4139 56.3135 90.4173 56.7689 90.4121 57.2225C90.4121 57.3484 90.4723 57.5347 90.2609 57.5416C90.0632 57.5485 90.0993 57.3622 90.0632 57.2363C89.9653 56.8948 89.8931 56.5412 89.7504 56.2204C89.2898 55.1803 88.0747 54.5541 86.9679 54.7749C86.3388 54.9008 85.8885 55.2682 85.7063 55.8909C85.5293 56.4981 85.8008 56.9672 86.2666 57.3432C86.7599 57.7417 87.3047 58.0573 87.8547 58.3695C88.4562 58.7093 89.0647 59.0353 89.6456 59.4079C90.8177 60.1599 91.2921 61.2569 90.9913 62.4298C90.6974 63.5769 89.5614 64.4341 88.2603 64.5238C87.4525 64.579 86.7015 64.3668 85.9469 64.1305C85.5396 64.0029 85.0566 63.7097 84.8538 64.422C84.8315 64.5014 84.7318 64.5411 84.6613 64.4962C84.6063 64.4617 84.5548 64.3755 84.5548 64.3116C84.5479 63.3026 84.5479 62.2936 84.5548 61.2845C84.5548 61.2242 84.6218 61.1276 84.6751 61.112C84.7817 61.0827 84.8556 61.1569 84.8831 61.2673C84.9518 61.5346 85.0085 61.8072 85.0945 62.0693C85.562 63.4837 87.1707 64.2858 88.5766 63.8114C89.7934 63.4027 90.1079 62.0935 89.2176 61.1603C88.8412 60.7671 88.3634 60.529 87.9028 60.2617C87.1535 59.8253 86.3766 59.4338 85.6771 58.9146C84.6218 58.1332 84.23 57.119 84.5445 56.0254C84.8521 54.9595 85.9091 54.1799 87.138 54.1109C87.8238 54.0729 88.4648 54.2385 89.0887 54.5076C89.484 54.6783 89.8896 54.8594 90.0821 54.2437C90.1148 54.1402 90.1973 54.0815 90.3107 54.1229C90.4293 54.1661 90.4104 54.2799 90.4104 54.3748C90.4139 54.8698 90.4104 55.3631 90.4104 55.8581H90.4139Z" fill="white"/>
<path d="M68.5436 64.2954C67.4007 64.2954 66.256 64.2971 65.1131 64.2919C64.991 64.2919 64.7917 64.3678 64.7659 64.1867C64.7298 63.9211 64.9687 64.0211 65.101 64.0056C65.9174 63.9021 66.1426 63.6917 66.146 62.8706C66.1598 60.5162 66.1615 58.1618 66.146 55.8074C66.1409 54.8828 65.9999 54.7638 65.0409 54.6551C64.9085 54.6396 64.7315 54.6793 64.7521 54.4654C64.771 54.2567 64.9567 54.3223 65.077 54.3223C67.4041 54.3188 69.7312 54.3223 72.0566 54.3154C72.299 54.3154 72.4141 54.3844 72.4193 54.6483C72.4279 55.2019 72.464 55.7539 72.4897 56.3076C72.4949 56.4076 72.5018 56.5163 72.3815 56.549C72.2233 56.5904 72.1838 56.4714 72.1494 56.3524C72.0962 56.1627 72.0446 55.9712 71.9862 55.7832C71.8194 55.2485 71.4362 54.9536 70.8948 54.9346C69.91 54.8984 68.9234 54.9156 67.9386 54.8915C67.6344 54.8846 67.5846 55.0243 67.5863 55.2847C67.5966 56.3334 67.5983 57.3821 67.5863 58.4309C67.5828 58.7068 67.6585 58.819 67.9506 58.8121C68.6209 58.7948 69.2912 58.8224 69.9615 58.8017C70.8037 58.7758 71.0632 58.5395 71.254 57.7099C71.2815 57.5909 71.211 57.3856 71.4224 57.3942C71.6734 57.4046 71.5788 57.6271 71.5806 57.7616C71.5891 58.6723 71.5874 59.5813 71.5806 60.4921C71.5806 60.618 71.6373 60.8077 71.4482 60.8353C71.2523 60.8646 71.2712 60.6749 71.2385 60.5455C70.991 59.5693 70.7865 59.3985 69.7793 59.3744C69.1881 59.3588 68.5969 59.3813 68.0056 59.3675C67.7221 59.3606 67.576 59.4158 67.5828 59.7521C67.6018 60.8595 67.5949 61.9685 67.5897 63.0759C67.5897 63.5226 67.8046 63.7262 68.2428 63.7227C68.9337 63.7193 69.6247 63.6951 70.3121 63.7279C71.2832 63.7762 71.981 63.3674 72.4708 62.5498C72.5826 62.3635 72.6926 62.1755 72.8043 61.991C72.8782 61.8702 72.9641 61.7305 73.1257 61.8202C73.2614 61.8961 73.1497 62.0306 73.136 62.1376C73.1308 62.1755 73.1119 62.2117 73.0982 62.2497C72.8593 62.9172 72.7991 63.8245 72.3265 64.185C71.883 64.523 71.0031 64.285 70.3139 64.2919C69.7226 64.2988 69.1314 64.2919 68.5384 64.2919L68.5436 64.2954Z" fill="white"/>
<path d="M111.703 59.3953C112.475 58.1569 113.233 57.0047 113.924 55.8128C114.278 55.2039 114.053 54.8245 113.352 54.6606C113.219 54.6296 113.042 54.6606 113.073 54.4536C113.104 54.2553 113.288 54.3225 113.412 54.3225C114.338 54.3174 115.264 54.3156 116.191 54.3243C116.321 54.3243 116.543 54.2225 116.557 54.483C116.567 54.6968 116.375 54.6365 116.251 54.6606C115.632 54.7848 115.18 55.1591 114.847 55.6697C113.951 57.0426 113.075 58.4277 112.188 59.8059C112.1 59.9438 112.044 60.0836 112.045 60.2474C112.049 61.1564 112.032 62.0671 112.061 62.9761C112.087 63.7489 112.269 63.8989 113.128 64.0007C113.254 64.0162 113.443 63.9559 113.425 64.1749C113.412 64.3422 113.247 64.2922 113.14 64.2922C111.918 64.2957 110.696 64.2957 109.472 64.2922C109.362 64.2922 109.204 64.3267 109.208 64.1525C109.209 63.9921 109.357 64.0162 109.474 63.999C110.426 63.8662 110.565 63.7213 110.59 62.764C110.607 62.0326 110.588 61.2996 110.596 60.5682C110.6 60.3388 110.535 60.1474 110.411 59.9576C109.484 58.5346 108.56 57.1099 107.642 55.68C107.321 55.1798 106.922 54.7917 106.325 54.6606C106.202 54.633 106.078 54.6106 106.1 54.4554C106.123 54.2949 106.269 54.3191 106.382 54.3191C107.604 54.3191 108.826 54.3174 110.05 54.3191C110.179 54.3191 110.356 54.2777 110.342 54.4985C110.332 54.6658 110.189 54.633 110.076 54.6537C109.149 54.821 109.001 55.1229 109.502 55.9301C110.205 57.0668 110.937 58.1862 111.705 59.3919L111.703 59.3953Z" fill="white"/>
<path d="M59.6216 62.126C60.2713 60.534 60.8986 59.0006 61.5208 57.4655C61.7356 56.9342 61.9556 56.4047 62.1395 55.8631C62.3784 55.1576 62.2581 54.9386 61.5741 54.7023C61.4383 54.6557 61.208 54.7057 61.2321 54.4694C61.2561 54.2297 61.4761 54.3228 61.6119 54.3211C62.3802 54.3125 63.1501 54.3142 63.9184 54.3211C64.0404 54.3211 64.2192 54.2538 64.257 54.4539C64.2931 54.6488 64.1246 54.6592 63.9957 54.6988C63.2876 54.9162 63.0195 55.5233 62.772 56.1287C61.7013 58.7419 60.6425 61.3619 59.5701 63.9751C59.4876 64.1752 59.4996 64.5133 59.192 64.5046C58.8998 64.496 58.9032 64.1648 58.8156 63.963C57.6382 61.2653 56.4661 58.5659 55.3077 55.8614C55.0447 55.249 54.7371 54.7264 53.9929 54.6643C53.8915 54.6557 53.7935 54.6229 53.7883 54.497C53.7815 54.3245 53.9104 54.3211 54.029 54.3211C55.2321 54.3211 56.4352 54.3211 57.6365 54.3211C57.7362 54.3211 57.8428 54.3349 57.8496 54.466C57.8565 54.5815 57.774 54.6229 57.6726 54.6609C56.6311 55.0679 56.5761 55.1714 57.0161 56.2167C57.8084 58.0916 58.6231 59.9562 59.4291 61.8225C59.4652 61.907 59.5271 61.9812 59.6165 62.126H59.6216Z" fill="white"/>
<path d="M102.134 59.2345C102.134 60.4815 102.117 61.7269 102.141 62.9739C102.156 63.7449 102.361 63.9243 103.136 64.0054C103.261 64.0192 103.466 63.945 103.469 64.1417C103.476 64.4038 103.237 64.2917 103.108 64.2935C101.966 64.3021 100.821 64.3038 99.6779 64.2935C99.5439 64.2935 99.3084 64.4056 99.2878 64.1744C99.2637 63.9209 99.5061 64.0209 99.6418 64.0089C100.391 63.9364 100.649 63.7363 100.659 62.9826C100.694 60.4315 100.685 57.8787 100.701 55.3277C100.701 55.1017 100.632 55.0068 100.4 55.0155C100.085 55.0275 99.769 55.0172 99.4528 55.0172C98.2462 55.0189 97.9695 55.2293 97.6017 56.404C97.5639 56.523 97.5845 56.7196 97.3749 56.6696C97.2202 56.6316 97.2735 56.4781 97.2786 56.3695C97.301 55.7968 97.3388 55.2242 97.3491 54.6515C97.3542 54.3911 97.4556 54.3186 97.7049 54.3203C100.19 54.3272 102.674 54.329 105.159 54.3203C105.427 54.3203 105.497 54.4307 105.506 54.6653C105.527 55.238 105.559 55.8106 105.58 56.3833C105.583 56.4919 105.619 56.6472 105.461 56.6748C105.26 56.7075 105.272 56.5282 105.234 56.4005C104.922 55.3173 104.537 55.0241 103.426 55.0206C102.554 55.0172 102.118 55.4547 102.118 56.3332V59.2414C102.118 59.2414 102.129 59.2414 102.134 59.2414V59.2345Z" fill="white"/>
<path d="M50.4472 59.2453C50.4472 58.0586 50.4627 56.8719 50.4421 55.6852C50.4283 54.9349 50.1963 54.7262 49.4418 54.6555C49.2992 54.6417 49.0654 54.7279 49.0654 54.4968C49.0654 54.2122 49.3301 54.3295 49.4796 54.3277C50.6036 54.3174 51.7277 54.3174 52.8517 54.3277C53.0047 54.3277 53.2694 54.2087 53.2883 54.4709C53.3089 54.7555 53.0373 54.6399 52.8844 54.652C52.1969 54.7124 51.9425 54.9073 51.9356 55.6024C51.9116 58.0948 51.9116 60.5872 51.9305 63.0779C51.9356 63.7403 52.1694 63.9024 52.9772 64.0024C53.1026 64.018 53.2986 63.9559 53.29 64.1611C53.2814 64.3716 53.0803 64.2905 52.96 64.2905C51.7775 64.2974 50.5933 64.2974 49.4109 64.2905C49.2888 64.2905 49.0929 64.3681 49.0654 64.1767C49.0362 63.9662 49.2338 64.0162 49.361 64.0007C50.2685 63.8886 50.4352 63.7247 50.449 62.8019C50.4661 61.6152 50.4541 60.4285 50.4541 59.2418C50.4524 59.2418 50.4507 59.2418 50.449 59.2418L50.4472 59.2453Z" fill="white"/>
<path d="M94.3876 54.3221C94.9789 54.3221 95.5701 54.3186 96.1613 54.3255C96.2834 54.3255 96.4672 54.2652 96.4638 54.4911C96.4621 54.6584 96.3246 54.6377 96.2077 54.655C95.1971 54.7999 95.0665 54.943 95.0648 55.9711C95.0596 58.2047 95.0614 60.4402 95.0648 62.6738C95.0648 63.7053 95.192 63.8485 96.2094 64.0054C96.3212 64.0227 96.4741 63.9899 96.4621 64.1658C96.4501 64.3366 96.2919 64.2918 96.1871 64.2918C94.9651 64.2952 93.7431 64.2952 92.5228 64.2918C92.4163 64.2918 92.2478 64.3332 92.2427 64.171C92.2341 63.9571 92.4283 64.0227 92.552 64.0072C93.4166 63.9019 93.6176 63.7139 93.6228 62.8498C93.6365 60.4781 93.6348 58.1047 93.6228 55.7313C93.6194 54.9517 93.3839 54.7292 92.6036 54.6515C92.4592 54.6377 92.2324 54.7102 92.241 54.4756C92.2496 54.2445 92.4799 54.3273 92.6191 54.3255C93.2103 54.3169 93.8015 54.3221 94.3928 54.3221H94.3876Z" fill="white"/>
<path d="M56.9065 130.787C56.8274 130.525 56.5507 130.555 56.3754 130.439C55.8374 130.084 55.7584 129.796 56.1142 129.27C56.2138 129.123 56.3238 128.982 56.4493 128.857C56.6745 128.637 56.824 128.502 56.4957 128.173C56.1073 127.783 56.4716 127.4 56.7638 127.11C57.0079 126.869 57.1127 126.758 56.7776 126.453C55.877 125.635 56.2138 124.155 57.3688 123.688C57.8604 123.49 58.3846 123.443 58.8692 123.652C59.3402 123.854 59.8094 123.898 60.3044 123.881C60.4934 123.874 60.7289 123.824 60.7203 124.142C60.7117 124.411 60.5072 124.373 60.3336 124.38C60.1961 124.385 60.0603 124.392 59.9176 124.399C59.9176 124.466 59.9039 124.525 59.9194 124.576C60.3439 126.003 59.4966 127.06 58.0133 126.95C57.8758 126.939 57.7418 126.901 57.6043 126.896C57.276 126.884 57.1471 127.127 57.1144 127.381C57.0818 127.629 57.3069 127.698 57.5149 127.71C58.1439 127.748 58.7713 127.776 59.4003 127.816C59.9417 127.85 60.4178 128.019 60.6206 128.581C60.82 129.135 60.5622 129.565 60.215 129.98C59.8936 130.365 59.3917 130.46 59.0411 130.789H56.9116L56.9065 130.787ZM58.3983 130.167C58.9844 130.158 59.5481 130.115 59.9933 129.678C60.1703 129.506 60.2923 129.304 60.2356 129.049C60.172 128.761 59.9142 128.711 59.6839 128.692C58.9036 128.628 58.1199 128.571 57.3379 128.543C56.9099 128.528 56.8326 128.926 56.7088 129.218C56.5885 129.499 56.7432 129.711 56.989 129.853C57.429 130.106 57.9136 130.156 58.3983 130.168V130.167ZM57.2021 124.968C57.2279 125.539 57.276 125.991 57.594 126.355C58.0168 126.841 58.7713 126.744 58.9964 126.148C59.2456 125.484 59.1631 124.823 58.7919 124.216C58.6252 123.945 58.3588 123.814 58.0374 123.84C57.6902 123.867 57.4444 124.064 57.3293 124.385C57.2502 124.604 57.2279 124.844 57.2021 124.968Z" fill="white"/>
<path d="M21.1641 130.79C21.1933 130.74 21.2208 130.647 21.2552 130.644C22.0904 130.59 22.0337 130 22.0286 129.407C22.0148 127.965 22.0183 126.523 22.0286 125.083C22.032 124.572 22.0028 124.122 21.2208 124.294C21.6934 123.903 22.2039 123.786 22.6731 123.587C22.8312 123.52 22.9395 123.592 22.9395 123.779C22.9395 123.974 22.9395 124.168 22.9395 124.393C23.2007 124.369 23.2523 124.144 23.3795 124.02C24.0377 123.377 24.9487 123.377 25.588 124.032C26.6639 125.138 26.4095 127.522 25.1171 128.353C24.4262 128.796 23.7077 128.734 22.9412 128.353C22.9412 128.92 22.9464 129.428 22.9412 129.935C22.936 130.311 23.0873 130.54 23.4792 130.568C23.6287 130.578 23.7524 130.612 23.7713 130.79H21.1675H21.1641ZM22.9378 126.178C22.9378 126.583 22.936 126.901 22.9378 127.216C22.9429 127.76 23.2042 128.129 23.7232 128.267C24.2629 128.41 24.6891 128.208 24.9813 127.73C25.4316 126.995 25.3835 125.541 24.8833 124.834C24.4519 124.225 23.8401 124.184 23.2609 124.662C22.6971 125.127 23.0546 125.736 22.9378 126.178Z" fill="white"/>
<path d="M141.999 127.108C141.788 127.191 141.8 127.419 141.705 127.577C141.301 128.252 140.76 128.695 139.937 128.652C139.084 128.607 138.484 128.152 138.16 127.384C137.797 126.528 137.816 125.64 138.192 124.79C138.533 124.022 139.148 123.598 139.992 123.548C140.848 123.496 141.478 123.848 141.841 124.647C141.87 124.712 141.898 124.798 142.001 124.735V125.566C141.195 125.556 140.387 125.542 139.581 125.538C138.577 125.533 138.488 125.683 138.895 126.646C138.918 126.701 138.94 126.756 138.969 126.808C139.277 127.362 139.722 127.736 140.372 127.76C140.985 127.782 141.425 127.474 141.671 126.911C141.74 126.753 141.841 126.665 142.003 126.635V127.11L141.999 127.108ZM139.717 125.19C139.952 125.19 140.189 125.166 140.421 125.195C140.913 125.256 140.884 124.967 140.782 124.659C140.657 124.276 140.377 124.031 139.978 123.964C139.572 123.896 139.251 124.079 139 124.384C138.835 124.585 138.66 124.85 138.742 125.076C138.833 125.325 139.15 125.152 139.364 125.188C139.48 125.207 139.6 125.192 139.717 125.192V125.19Z" fill="white"/>
<path d="M70.2039 121.385H74.0882C74.2257 121.385 74.3649 121.385 74.5024 121.385C75.7657 121.385 75.9238 121.602 75.6316 122.949C75.5817 122.921 75.5113 122.908 75.4958 122.87C75.0816 121.811 75.0507 121.788 73.9095 121.786C73.4763 121.786 73.0415 121.8 72.6084 121.781C72.3111 121.767 72.1822 121.85 72.1925 122.175C72.2131 122.845 72.2131 123.52 72.1925 124.191C72.1839 124.513 72.3145 124.607 72.6101 124.586C72.8645 124.569 73.1223 124.582 73.3784 124.582C74.5196 124.582 74.5247 124.579 75.0043 123.418V126.019C74.9493 126.004 74.8891 126.004 74.8822 125.983C74.6439 125.318 74.1294 124.986 73.3388 124.986C72.578 124.986 72.1982 125.368 72.1993 126.133C72.1993 126.607 72.22 127.082 72.2217 127.556C72.2217 127.929 72.3953 128.098 72.7682 128.079C73.0243 128.065 73.2838 128.051 73.5365 128.08C74.6244 128.212 75.4855 127.917 75.9513 126.839C75.965 126.806 76.0011 126.776 76.0338 126.763C76.0664 126.749 76.1094 126.754 76.1988 126.747C76.1163 127.321 75.8567 127.829 75.6952 128.362C75.6453 128.525 75.4958 128.525 75.3532 128.524C73.6585 128.517 71.9639 128.513 70.2692 128.505C70.2435 128.505 70.2177 128.462 70.1919 128.439C70.2005 128.405 70.2039 128.343 70.2194 128.339C71.175 128.11 71.1819 128.106 71.1836 127.07C71.187 125.705 71.218 124.339 71.175 122.977C71.1372 121.785 71.3881 121.85 70.2005 121.383L70.2039 121.385Z" fill="white"/>
<path d="M47.591 128.461C48.2475 128.309 48.2647 127.818 48.2578 127.297C48.2475 126.566 48.2579 125.832 48.2544 125.101C48.251 124.623 48.2733 124.111 47.4312 124.349C47.4466 124.28 47.4621 124.211 47.4758 124.142C47.9571 123.944 48.4332 123.733 48.923 123.554C49.0914 123.492 49.1619 123.637 49.1619 123.799C49.1619 123.975 49.1619 124.151 49.1619 124.415C49.4523 124.18 49.662 123.982 49.8992 123.826C50.8737 123.188 51.8482 123.637 51.9428 124.801C52.0081 125.606 51.9771 126.422 51.9754 127.233C51.9754 127.766 51.9634 128.292 52.7609 128.352C52.3106 128.559 50.9751 128.587 50.2584 128.39C51.3068 128.313 51.0765 127.587 51.0851 126.993C51.0937 126.36 51.1092 125.726 51.0714 125.094C51.0456 124.646 50.9253 124.209 50.3306 124.215C49.748 124.22 49.1739 124.715 49.167 125.23C49.1585 125.903 49.1877 126.578 49.1584 127.249C49.1327 127.83 49.1825 128.321 49.9044 128.463H47.591V128.461Z" fill="white"/>
<path d="M11.3487 128.484H9.05941C10.0906 128.239 9.7383 127.418 9.76752 126.777C9.7933 126.206 9.78986 125.63 9.75548 125.059C9.72627 124.597 9.57846 124.189 8.98551 124.219C8.44239 124.245 7.86835 124.7 7.86147 125.147C7.84772 125.976 7.88553 126.808 7.84944 127.636C7.82366 128.201 8.26193 128.243 8.59536 128.474H6.27683C7.09493 128.269 6.94369 127.62 6.94884 127.054C6.954 126.461 6.954 125.869 6.94884 125.276C6.9454 124.747 7.04509 124.136 5.97949 124.314C6.58963 123.893 7.08634 123.767 7.54867 123.57C7.73257 123.493 7.8546 123.577 7.85632 123.789C7.85804 123.965 7.85632 124.139 7.85632 124.419C8.13131 124.195 8.3238 124.017 8.53692 123.867C9.54065 123.161 10.5581 123.624 10.6389 124.85C10.6922 125.676 10.6647 126.509 10.6681 127.339C10.6698 127.839 10.7008 128.315 11.4295 128.333C11.402 128.383 11.3762 128.434 11.3487 128.484Z" fill="white"/>
<path d="M124.283 128.476H121.949C122.8 128.245 122.643 127.562 122.647 126.962C122.65 126.349 122.647 125.737 122.643 125.125C122.64 124.628 122.64 124.123 121.806 124.321C121.822 124.257 121.835 124.192 121.851 124.128C122.327 123.938 122.801 123.74 123.281 123.56C123.448 123.498 123.537 123.591 123.535 123.771C123.532 123.962 123.535 124.155 123.535 124.433C123.836 124.19 124.058 123.978 124.31 123.812C125.235 123.21 126.189 123.607 126.318 124.704C126.416 125.542 126.388 126.399 126.374 127.248C126.364 127.802 126.395 128.285 127.072 128.462H124.761C125.689 128.274 125.47 127.548 125.472 126.938C125.476 126.306 125.476 125.673 125.448 125.042C125.427 124.594 125.281 124.216 124.73 124.214C124.224 124.214 123.551 124.683 123.544 125.087C123.528 125.956 123.549 126.825 123.552 127.695C123.552 128.186 123.9 128.299 124.334 128.316C124.317 128.369 124.3 128.423 124.283 128.478V128.476Z" fill="white"/>
<path d="M0 121.426H3.01461C1.75823 121.512 2.02635 122.442 2.02291 123.201C2.01604 124.544 2.01948 125.888 2.0212 127.232C2.0212 128.094 2.04354 128.118 2.90805 128.306C2.95101 128.315 2.98367 128.374 3.08851 128.47H0C1.19622 128.374 0.971068 127.487 0.976224 126.749C0.984817 125.464 0.979661 124.18 0.977943 122.895C0.977943 122.17 0.651962 121.68 0 121.426Z" fill="white"/>
<path d="M79.4319 123.878C79.5006 123.662 79.5866 123.673 79.6622 123.673C80.3273 123.671 80.9925 123.673 81.6937 123.673C81.2537 124.266 81.2847 124.397 82.0289 125.227C82.8384 124.356 82.8796 124.204 82.352 123.731H83.9899C83.3454 124.078 83.0051 124.721 82.5479 125.256C82.2712 125.579 82.2953 125.808 82.5462 126.122C82.8538 126.507 83.1082 126.934 83.3918 127.338C83.6926 127.766 83.9383 128.252 84.4986 128.469H82.0925C82.9415 128.149 82.6356 127.776 82.3623 127.397C82.144 127.093 81.9378 126.781 81.6868 126.413C81.3534 126.869 81.0578 127.286 80.7484 127.692C80.4425 128.092 80.8378 128.214 81.1162 128.452C80.5233 128.595 80.0214 128.499 79.5006 128.471C80.2225 127.9 80.6281 127.103 81.1901 126.439C81.4308 126.155 81.4153 125.948 81.1953 125.672C80.9375 125.347 80.7192 124.992 80.4855 124.649C80.2294 124.271 79.9595 123.909 79.4302 123.881L79.4319 123.878Z" fill="white"/>
<path d="M99.4407 126.658C99.4475 127.929 98.2754 128.89 97.1032 128.614C95.919 128.337 95.2831 127.145 95.4825 125.58C95.6406 124.345 96.5275 123.528 97.6945 123.543C98.614 123.555 99.3083 124.147 99.4819 125.047C99.5472 125.387 99.4991 125.56 99.09 125.546C98.2822 125.518 97.4727 125.561 96.6667 125.528C96.2318 125.511 96.1768 125.679 96.2456 126.049C96.3504 126.615 96.567 127.105 97.0379 127.457C97.7649 127.997 98.6483 127.823 99.1244 127.053C99.2018 126.927 99.2086 126.745 99.4407 126.662V126.658ZM97.3163 125.19C97.5123 125.19 97.7099 125.171 97.9024 125.194C98.4747 125.265 98.4077 124.928 98.2771 124.588C98.1413 124.235 97.8595 124.016 97.4865 123.962C97.0568 123.9 96.7285 124.104 96.481 124.44C96.3418 124.63 96.182 124.873 96.2697 125.085C96.3642 125.316 96.6495 125.156 96.8489 125.185C97.0018 125.208 97.1617 125.19 97.3181 125.19H97.3163Z" fill="white"/>
<path d="M118.598 126.654C118.625 127.922 117.448 128.886 116.269 128.607C115.078 128.326 114.449 127.148 114.65 125.576C114.808 124.336 115.691 123.522 116.858 123.539C117.786 123.553 118.464 124.136 118.642 125.043C118.713 125.395 118.651 125.552 118.251 125.54C117.424 125.516 116.595 125.551 115.769 125.525C115.394 125.513 115.337 125.666 115.396 125.98C115.497 126.516 115.674 127.01 116.107 127.374C116.865 128.012 117.812 127.851 118.316 126.998C118.383 126.886 118.393 126.732 118.596 126.653L118.598 126.654ZM116.394 125.188C116.649 125.188 116.906 125.168 117.157 125.193C117.566 125.235 117.565 125.002 117.489 124.724C117.377 124.305 117.096 124.04 116.676 123.965C116.222 123.886 115.875 124.103 115.626 124.469C115.494 124.662 115.332 124.905 115.44 125.118C115.525 125.28 115.794 125.171 115.982 125.185C116.118 125.195 116.257 125.187 116.393 125.187L116.394 125.188Z" fill="white"/>
<path d="M91.8254 126.49C91.8254 128.015 90.4418 129.012 89.225 128.527C88.1611 128.103 87.6008 126.723 87.9308 125.34C88.2041 124.196 89.2422 123.434 90.3817 123.551C90.9437 123.608 91.4094 123.849 91.6776 124.365C91.8254 124.646 91.858 124.971 91.4902 125.115C91.1293 125.257 90.801 125.16 90.7151 124.738C90.6257 124.298 90.514 123.911 89.9709 123.917C89.4295 123.924 89.0858 124.237 88.9036 124.715C88.5976 125.519 88.6681 126.314 89.0961 127.058C89.665 128.046 90.8251 128.07 91.4541 127.118C91.5607 126.958 91.6518 126.787 91.8254 126.49Z" fill="white"/>
<path d="M134.327 126.472C134.275 127.564 133.682 128.342 132.849 128.585C132.087 128.807 131.295 128.499 130.788 127.781C130.13 126.851 130.171 125.254 130.886 124.381C131.431 123.716 132.141 123.443 132.988 123.569C133.48 123.641 133.889 123.881 134.133 124.324C134.294 124.618 134.358 124.963 133.952 125.12C133.586 125.261 133.272 125.144 133.187 124.721C133.105 124.307 133.004 123.935 132.49 123.917C131.974 123.9 131.642 124.183 131.421 124.621C131.022 125.409 131.194 126.71 131.78 127.364C132.352 128.002 133.297 127.954 133.835 127.25C133.987 127.053 134.102 126.831 134.325 126.474L134.327 126.472Z" fill="white"/>
<path d="M14.8428 126.827C15.1178 126.972 15.08 127.224 15.1745 127.403C15.4478 127.931 15.8345 128.284 16.4549 128.305C16.8021 128.315 17.0788 128.172 17.2077 127.843C17.3384 127.513 17.2335 127.218 16.974 126.987C16.5856 126.642 16.1009 126.46 15.654 126.211C15.1436 125.928 14.7586 125.566 14.7723 124.923C14.7912 123.971 15.6214 123.376 16.6457 123.588C16.9791 123.657 17.3109 123.86 17.6873 123.453C17.7268 124.109 17.7594 124.636 17.6701 125.19C17.3899 125.095 17.4226 124.861 17.3435 124.698C17.1974 124.39 17.0273 124.109 16.6887 123.974C16.2109 123.784 15.6386 123.921 15.4942 124.295C15.3051 124.792 15.6145 125.08 15.9943 125.295C16.4051 125.526 16.8451 125.708 17.2524 125.946C17.9227 126.339 18.1788 126.886 18.0276 127.515C17.8746 128.152 17.2696 128.591 16.5443 128.662C15.996 128.716 15.4839 128.348 14.9287 128.557C14.8514 128.586 14.7878 128.502 14.7912 128.41C14.8101 127.895 14.7259 127.374 14.8428 126.829V126.827Z" fill="white"/>
<path d="M102.83 121.794C103.399 121.371 103.887 121.233 104.353 121.061C104.686 120.937 104.626 121.233 104.626 121.413C104.63 122.818 104.628 124.222 104.628 125.628C104.628 126.163 104.642 126.698 104.624 127.231C104.605 127.803 104.64 128.321 105.375 128.459H103.084C103.829 128.288 103.739 127.714 103.739 127.184C103.739 125.68 103.739 124.176 103.739 122.672C103.739 122.168 103.789 121.628 102.83 121.792V121.794Z" fill="white"/>
<path d="M37.7892 128.479H35.3864C36.3162 128.227 36.0705 127.482 36.0808 126.856C36.0911 126.263 36.0808 125.671 36.0825 125.078C36.0825 124.583 36.0859 124.087 35.2231 124.37C35.2472 124.294 35.2713 124.219 35.2936 124.143C35.7783 123.946 36.2509 123.644 36.7511 123.582C37.2357 123.522 36.8525 124.056 37.0708 124.284C37.3028 124.229 37.375 123.946 37.5657 123.799C37.8906 123.553 38.224 123.427 38.5952 123.67C38.8651 123.848 38.9218 124.124 38.7791 124.4C38.6365 124.676 38.3873 124.691 38.1192 124.565C37.4987 124.275 37.0381 124.522 37.0054 125.216C36.9693 126.004 36.9848 126.795 37.0054 127.585C37.0175 128.055 37.1034 128.117 37.7857 128.479H37.7892Z" fill="white"/>
<path d="M108.783 121.616C109.139 121.466 109.504 121.332 109.851 121.163C110.262 120.963 110.433 121 110.425 121.528C110.399 123.286 110.415 125.045 110.415 126.805C110.415 126.963 110.421 127.12 110.415 127.279C110.387 127.84 110.47 128.321 111.171 128.454H108.876C109.739 128.207 109.54 127.498 109.543 126.887C109.55 125.464 109.545 124.041 109.545 122.618C109.545 122.115 109.526 121.628 108.739 121.787C108.753 121.73 108.766 121.675 108.78 121.618L108.783 121.616Z" fill="white"/>
<path d="M41.7749 124.308C42.3575 123.889 42.8439 123.739 43.3131 123.579C43.6861 123.451 43.6019 123.789 43.6036 123.979C43.6122 125.024 43.6036 126.07 43.6088 127.115C43.6105 127.674 43.5177 128.291 44.3117 128.472H42.0104C42.8336 128.341 42.7116 127.72 42.7168 127.179C42.7236 126.528 42.7236 125.876 42.7168 125.226C42.7099 124.716 42.7803 124.133 41.7766 124.31L41.7749 124.308Z" fill="white"/>
<path d="M32.1194 128.477H29.8524C30.7152 128.266 30.5141 127.581 30.5227 127.005C30.5313 126.353 30.5279 125.703 30.5227 125.051C30.5193 124.587 30.5279 124.102 29.7407 124.258C30.2357 123.906 30.7221 123.664 31.2515 123.564C31.5144 123.514 31.4354 123.811 31.4371 123.966C31.444 125.011 31.4371 126.058 31.4422 127.104C31.4457 127.656 31.2876 128.297 32.1194 128.475V128.477Z" fill="white"/>
<path d="M70.5316 122.126C70.1861 122.088 69.9885 121.898 70.0005 121.547C70.0108 121.222 70.2016 121.043 70.5299 121.043C70.8599 121.043 71.0524 121.236 71.0661 121.548C71.0816 121.892 70.8788 122.09 70.5316 122.126Z" fill="white"/>
<path d="M70.6033 122.13C70.2149 122.103 70.0035 121.918 70 121.573C69.9966 121.259 70.1839 121.057 70.5105 121.044C70.8319 121.031 71.0399 121.206 71.0691 121.523C71.1017 121.875 70.8869 122.056 70.6033 122.128V122.13Z" fill="white"/>
</svg>
